Note: This torrent contains both a DVD ISO and an MP4 Video of the concert so I suggest you select whichever you prefer. The MP4@720p has the better video quality.

BBC Proms 2011, Number 29
Recorded 5 August
Broadcast BBC2 6 August
Thanks to GringoLoco & the BBC   

Mahler:
Symphony No. 2 in C minor 'Resurrection' (85 mins)

Miah Persson: soprano
Anna Larsson: mezzo-soprano
National Youth Choir of Great Britain
Simon Bolívar Symphony Orchestra
Gustavo Dudamel: conductor

Commentary in English
Fixed English subtitles for vocals

*******************************************************

Format: DVD ISO PAL
Runtime: 1:42

Format                           : MPEG-PS
Overall bit rate                 : 3 967 Kbps

Video
ID                               : 224 (0xE0)
Format                           : MPEG Video
Format version                   : Version 2
Format profile                   : Main@Main
Format settings, BVOP            : Yes
Format settings, Matrix          : Default
Bit rate mode                    : Variable
Bit rate                         : 3 633 Kbps
Nominal bit rate                 : 9 544 Kbps
Width                            : 720 pixels
Height                           : 576 pixels
Display aspect ratio             : 16:9
Frame rate                       : 25.000 fps
Standard                         : PAL
Color space                      : YUV
Chroma subsampling               : 4:2:0
Bit depth                        : 8 bits
Scan type                        : Interlaced
Scan order                       : Top Field First
Compression mode                 : Lossy
Bits/(Pixel*Frame)               : 0.350

Audio
ID                               : 192 (0xC0)
Format                           : MPEG Audio
Format version                   : Version 1
Format profile                   : Layer 2
Bit rate mode                    : Constant
Bit rate                         : 256 Kbps
Channel(s)                       : 2 channels
Sampling rate                    : 48.0 KHz
Compression mode                 : Lossy

*******************************************************

Format: MP4 720p
Runtime: 1:42

Format profile                   : Base Media
Codec ID                         : isom
File size                        : 1.93 GiB
Duration                         : 1h 42mn
Overall bit rate                 : 2 709 Kbps
Writing application              : Lavf52.93.0

Video
ID                               : 1
Format                           : AVC
Format/Info                      : Advanced Video Codec
Format profile                   : High@L4.1
Format settings, CABAC           : Yes
Format settings, ReFrames        : 6 frames
Codec ID                         : avc1
Codec ID/Info                    : Advanced Video Coding
Duration                         : 1h 42mn
Bit rate mode                    : Variable
Bit rate                         : 2 609 Kbps
Maximum bit rate                 : 3 500 Kbps
Width                            : 1 280 pixels
Height                           : 720 pixels
Display aspect ratio             : 16:9
Frame rate mode                  : Constant
Frame rate                       : 25.000 fps
Standard                         : PAL
Color space                      : YUV
Chroma subsampling               : 4:2:0
Bit depth                        : 8 bits
Scan type                        : Progressive
Bits/(Pixel*Frame)               : 0.113
Stream size                      : 1.86 GiB (96%)

Audio
ID                               : 2
Format                           : AAC
Format/Info                      : Advanced Audio Codec
Format profile                   : HE-AAC / LC
Codec ID                         : 40
Duration                         : 1h 42mn
Bit rate mode                    : Variable
Bit rate                         : 96.0 Kbps
Channel(s)                       : 2 channels
Channel positions                : Front: L R
Sampling rate                    : 48.0 KHz / 24.0 KHz
Compression mode                 : Lossy
Stream size                      : 69.2 MiB (3%)
